<mxfile host="app.diagrams.net" modified="2020-12-31T21:34:31.458Z" agent="5.0 (Macintosh; Intel Mac OS X 10_15_6) AppleWebKit/537.36 (KHTML, like Gecko) Chrome/87.0.4280.88 Safari/537.36" etag="4qtoxV5CciYYHaiXBAOa" version="14.1.5" type="github">
  <diagram name="Page-1" id="97916047-d0de-89f5-080d-49f4d83e522f">
    <mxGraphModel dx="2372" dy="1246" grid="1" gridSize="10" guides="1" tooltips="1" connect="1" arrows="1" fold="1" page="1" pageScale="1.5" pageWidth="1169" pageHeight="827" background="#ffffff" math="0" shadow="0">
      <root>
        <mxCell id="0" />
        <mxCell id="1" parent="0" />
        <mxCell id="2" value="App" style="rounded=1;fillColor=#10739E;strokeColor=none;shadow=1;gradientColor=none;fontStyle=1;fontColor=#FFFFFF;fontSize=14;" parent="1" vertex="1">
          <mxGeometry x="672" y="205.5" width="200" height="60" as="geometry" />
        </mxCell>
        <mxCell id="3" value="Layout" style="rounded=1;fillColor=#10739E;strokeColor=none;shadow=1;gradientColor=none;fontStyle=1;fontColor=#FFFFFF;fontSize=14;" parent="1" vertex="1">
          <mxGeometry x="662" y="345.5" width="220" height="60" as="geometry" />
        </mxCell>
        <mxCell id="4" value="Toolbar" style="rounded=1;fillColor=#10739E;strokeColor=none;shadow=1;gradientColor=none;fontStyle=1;fontColor=#FFFFFF;fontSize=14;" parent="1" vertex="1">
          <mxGeometry x="302" y="455.5" width="200" height="60" as="geometry" />
        </mxCell>
        <mxCell id="5" value="Side Drawer" style="rounded=1;fillColor=#10739E;strokeColor=none;shadow=1;gradientColor=none;fontStyle=1;fontColor=#FFFFFF;fontSize=14;" parent="1" vertex="1">
          <mxGeometry x="542" y="455.5" width="200" height="60" as="geometry" />
        </mxCell>
        <mxCell id="6" value="Counsel Division" style="rounded=1;fillColor=#10739E;strokeColor=none;shadow=1;gradientColor=none;fontStyle=1;fontColor=#FFFFFF;fontSize=14;" parent="1" vertex="1">
          <mxGeometry x="850" y="455.5" width="200" height="60" as="geometry" />
        </mxCell>
        <mxCell id="8" value="Drawer Toggle Btn" style="rounded=1;fillColor=#10739E;strokeColor=none;shadow=1;gradientColor=none;fontStyle=1;fontColor=#FFFFFF;fontSize=14;" parent="1" vertex="1">
          <mxGeometry x="282" y="600" width="200" height="60" as="geometry" />
        </mxCell>
        <mxCell id="9" value="Logo" style="rounded=1;fillColor=#10739E;strokeColor=none;shadow=1;gradientColor=none;fontStyle=1;fontColor=#FFFFFF;fontSize=14;" parent="1" vertex="1">
          <mxGeometry x="282" y="705.5" width="458" height="60" as="geometry" />
        </mxCell>
        <mxCell id="10" value="Navigation Items" style="rounded=1;fillColor=#10739E;strokeColor=none;shadow=1;gradientColor=none;fontStyle=1;fontColor=#FFFFFF;fontSize=14;" parent="1" vertex="1">
          <mxGeometry x="282" y="765.5" width="458" height="60" as="geometry" />
        </mxCell>
        <mxCell id="11" value="Department of &#xa;Heuristic Support" style="rounded=1;fillColor=#10739E;strokeColor=none;shadow=1;gradientColor=none;fontStyle=1;fontColor=#FFFFFF;fontSize=14;" parent="1" vertex="1">
          <mxGeometry x="282" y="885.5" width="200" height="60" as="geometry" />
        </mxCell>
        <mxCell id="12" value="Burger Builder" style="rounded=1;fillColor=#10739E;strokeColor=none;shadow=1;gradientColor=none;fontStyle=1;fontColor=#FFFFFF;fontSize=14;" parent="1" vertex="1">
          <mxGeometry x="1080" y="570" width="200" height="60" as="geometry" />
        </mxCell>
        <mxCell id="29" value="" style="edgeStyle=elbowEdgeStyle;elbow=vertical;strokeWidth=4;endArrow=block;endFill=1;fontStyle=1;strokeColor=#23445D;" parent="1" source="2" target="3" edge="1">
          <mxGeometry x="22" y="165.5" width="100" height="100" as="geometry">
            <mxPoint x="22" y="265.5" as="sourcePoint" />
            <mxPoint x="122" y="165.5" as="targetPoint" />
          </mxGeometry>
        </mxCell>
        <mxCell id="30" value="" style="edgeStyle=elbowEdgeStyle;elbow=vertical;strokeWidth=4;endArrow=block;endFill=1;fontStyle=1;strokeColor=#23445D;" parent="1" source="3" target="5" edge="1">
          <mxGeometry x="22" y="165.5" width="100" height="100" as="geometry">
            <mxPoint x="22" y="265.5" as="sourcePoint" />
            <mxPoint x="122" y="165.5" as="targetPoint" />
          </mxGeometry>
        </mxCell>
        <mxCell id="31" value="" style="edgeStyle=elbowEdgeStyle;elbow=vertical;strokeWidth=4;endArrow=block;endFill=1;fontStyle=1;strokeColor=#23445D;" parent="1" source="3" target="4" edge="1">
          <mxGeometry x="22" y="165.5" width="100" height="100" as="geometry">
            <mxPoint x="22" y="265.5" as="sourcePoint" />
            <mxPoint x="122" y="165.5" as="targetPoint" />
          </mxGeometry>
        </mxCell>
        <mxCell id="32" value="" style="edgeStyle=elbowEdgeStyle;elbow=vertical;strokeWidth=4;endArrow=block;endFill=1;fontStyle=1;strokeColor=#23445D;" parent="1" source="3" target="6" edge="1">
          <mxGeometry x="22" y="165.5" width="100" height="100" as="geometry">
            <mxPoint x="22" y="265.5" as="sourcePoint" />
            <mxPoint x="122" y="165.5" as="targetPoint" />
          </mxGeometry>
        </mxCell>
        <mxCell id="33" value="" style="edgeStyle=elbowEdgeStyle;elbow=vertical;strokeWidth=4;endArrow=block;endFill=1;fontStyle=1;dashed=1;strokeColor=#23445D;entryX=0.5;entryY=0;entryDx=0;entryDy=0;exitX=0.5;exitY=1;exitDx=0;exitDy=0;" parent="1" source="3" target="MRi2y0TJPiElMwyEdzrn-55" edge="1">
          <mxGeometry x="22" y="165.5" width="100" height="100" as="geometry">
            <mxPoint x="770" y="410" as="sourcePoint" />
            <mxPoint x="1372" y="455.5" as="targetPoint" />
            <Array as="points">
              <mxPoint x="1060" y="430" />
            </Array>
          </mxGeometry>
        </mxCell>
        <mxCell id="34" value="" style="edgeStyle=elbowEdgeStyle;elbow=vertical;strokeWidth=4;endArrow=block;endFill=1;fontStyle=1;strokeColor=#23445D;exitX=0.5;exitY=1;exitDx=0;exitDy=0;entryX=0.5;entryY=0;entryDx=0;entryDy=0;" parent="1" source="4" target="8" edge="1">
          <mxGeometry x="22" y="165.5" width="100" height="100" as="geometry">
            <mxPoint x="520" y="530" as="sourcePoint" />
            <mxPoint x="382" y="620" as="targetPoint" />
            <Array as="points">
              <mxPoint x="420" y="570" />
            </Array>
          </mxGeometry>
        </mxCell>
        <mxCell id="38" value="" style="edgeStyle=elbowEdgeStyle;elbow=vertical;strokeWidth=4;endArrow=block;endFill=1;fontStyle=1;strokeColor=#23445D;" parent="1" source="8" target="9" edge="1">
          <mxGeometry x="62" y="165.5" width="100" height="100" as="geometry">
            <mxPoint x="62" y="265.5" as="sourcePoint" />
            <mxPoint x="162" y="165.5" as="targetPoint" />
          </mxGeometry>
        </mxCell>
        <mxCell id="40" value="" style="edgeStyle=elbowEdgeStyle;elbow=vertical;strokeWidth=4;endArrow=block;endFill=1;fontStyle=1;strokeColor=#23445D;" parent="1" source="10" target="11" edge="1">
          <mxGeometry x="62" y="185.5" width="100" height="100" as="geometry">
            <mxPoint x="62" y="285.5" as="sourcePoint" />
            <mxPoint x="162" y="185.5" as="targetPoint" />
          </mxGeometry>
        </mxCell>
        <mxCell id="41" value="" style="edgeStyle=elbowEdgeStyle;elbow=vertical;strokeWidth=4;endArrow=block;endFill=1;fontStyle=1;strokeColor=#23445D;exitX=0.5;exitY=1;exitDx=0;exitDy=0;" parent="1" source="MRi2y0TJPiElMwyEdzrn-55" target="12" edge="1">
          <mxGeometry x="62" y="195.5" width="100" height="100" as="geometry">
            <mxPoint x="1170" y="630" as="sourcePoint" />
            <mxPoint x="162" y="195.5" as="targetPoint" />
          </mxGeometry>
        </mxCell>
        <mxCell id="MRi2y0TJPiElMwyEdzrn-55" value="{props.children}" style="rounded=1;fillColor=#10739E;strokeColor=none;shadow=1;gradientColor=none;fontStyle=1;fontColor=#FFFFFF;fontSize=14;" vertex="1" parent="1">
          <mxGeometry x="1080" y="455.5" width="200" height="60" as="geometry" />
        </mxCell>
        <mxCell id="MRi2y0TJPiElMwyEdzrn-57" value="Different Pages" style="text;html=1;strokeColor=none;fillColor=none;align=center;verticalAlign=middle;whiteSpace=wrap;rounded=0;" vertex="1" parent="1">
          <mxGeometry x="1180" y="530" width="100" height="20" as="geometry" />
        </mxCell>
        <mxCell id="MRi2y0TJPiElMwyEdzrn-59" value="" style="edgeStyle=elbowEdgeStyle;elbow=vertical;strokeWidth=4;endArrow=block;endFill=1;fontStyle=1;strokeColor=#23445D;exitX=0.5;exitY=1;exitDx=0;exitDy=0;entryX=0.75;entryY=0;entryDx=0;entryDy=0;" edge="1" parent="1" source="5" target="9">
          <mxGeometry x="72" y="175.5" width="100" height="100" as="geometry">
            <mxPoint x="392" y="670" as="sourcePoint" />
            <mxPoint x="521" y="715.5" as="targetPoint" />
          </mxGeometry>
        </mxCell>
        <mxCell id="MRi2y0TJPiElMwyEdzrn-60" value="Build Controls" style="rounded=1;fillColor=#10739E;strokeColor=none;shadow=1;gradientColor=none;fontStyle=1;fontColor=#FFFFFF;fontSize=14;" vertex="1" parent="1">
          <mxGeometry x="890" y="680" width="200" height="60" as="geometry" />
        </mxCell>
        <mxCell id="MRi2y0TJPiElMwyEdzrn-61" value="Burger" style="rounded=1;fillColor=#10739E;strokeColor=none;shadow=1;gradientColor=none;fontStyle=1;fontColor=#FFFFFF;fontSize=14;" vertex="1" parent="1">
          <mxGeometry x="1140" y="680" width="160" height="60" as="geometry" />
        </mxCell>
        <mxCell id="MRi2y0TJPiElMwyEdzrn-62" value="Modal" style="rounded=1;fillColor=#10739E;strokeColor=none;shadow=1;gradientColor=none;fontStyle=1;fontColor=#FFFFFF;fontSize=14;" vertex="1" parent="1">
          <mxGeometry x="1330" y="680" width="200" height="60" as="geometry" />
        </mxCell>
        <mxCell id="MRi2y0TJPiElMwyEdzrn-63" value="" style="edgeStyle=elbowEdgeStyle;elbow=vertical;strokeWidth=4;endArrow=block;endFill=1;fontStyle=1;strokeColor=#23445D;exitX=0.5;exitY=1;exitDx=0;exitDy=0;entryX=0.5;entryY=0;entryDx=0;entryDy=0;" edge="1" parent="1" source="12" target="MRi2y0TJPiElMwyEdzrn-60">
          <mxGeometry x="276.5" y="240" width="100" height="100" as="geometry">
            <mxPoint x="846.5" y="580" as="sourcePoint" />
            <mxPoint x="830" y="770" as="targetPoint" />
            <Array as="points">
              <mxPoint x="1010" y="650" />
            </Array>
          </mxGeometry>
        </mxCell>
        <mxCell id="MRi2y0TJPiElMwyEdzrn-64" value="" style="edgeStyle=elbowEdgeStyle;elbow=vertical;strokeWidth=4;endArrow=block;endFill=1;fontStyle=1;strokeColor=#23445D;entryX=0.5;entryY=0;entryDx=0;entryDy=0;" edge="1" parent="1" target="MRi2y0TJPiElMwyEdzrn-61">
          <mxGeometry x="286.5" y="250" width="100" height="100" as="geometry">
            <mxPoint x="1180" y="630" as="sourcePoint" />
            <mxPoint x="1000" y="690" as="targetPoint" />
            <Array as="points">
              <mxPoint x="1020" y="660" />
            </Array>
          </mxGeometry>
        </mxCell>
        <mxCell id="MRi2y0TJPiElMwyEdzrn-65" value="" style="edgeStyle=elbowEdgeStyle;elbow=vertical;strokeWidth=4;endArrow=block;endFill=1;fontStyle=1;strokeColor=#23445D;exitX=0.5;exitY=1;exitDx=0;exitDy=0;entryX=0.5;entryY=0;entryDx=0;entryDy=0;" edge="1" parent="1" source="12" target="MRi2y0TJPiElMwyEdzrn-62">
          <mxGeometry x="286.5" y="250" width="100" height="100" as="geometry">
            <mxPoint x="1190" y="640" as="sourcePoint" />
            <mxPoint x="1000" y="690" as="targetPoint" />
            <Array as="points">
              <mxPoint x="1300" y="650" />
            </Array>
          </mxGeometry>
        </mxCell>
        <mxCell id="MRi2y0TJPiElMwyEdzrn-66" value="Build Control Component" style="rounded=1;fillColor=#10739E;strokeColor=none;shadow=1;gradientColor=none;fontStyle=1;fontColor=#FFFFFF;fontSize=14;" vertex="1" parent="1">
          <mxGeometry x="890" y="770" width="200" height="60" as="geometry" />
        </mxCell>
        <mxCell id="MRi2y0TJPiElMwyEdzrn-67" value="Build Control Component" style="rounded=1;fillColor=#10739E;strokeColor=none;shadow=1;gradientColor=none;fontStyle=1;fontColor=#FFFFFF;fontSize=14;" vertex="1" parent="1">
          <mxGeometry x="890" y="840" width="200" height="60" as="geometry" />
        </mxCell>
        <mxCell id="MRi2y0TJPiElMwyEdzrn-68" value="Order Button" style="rounded=1;fillColor=#10739E;strokeColor=none;shadow=1;gradientColor=none;fontStyle=1;fontColor=#FFFFFF;fontSize=14;" vertex="1" parent="1">
          <mxGeometry x="890" y="960" width="200" height="60" as="geometry" />
        </mxCell>
        <mxCell id="MRi2y0TJPiElMwyEdzrn-69" value="" style="edgeStyle=elbowEdgeStyle;elbow=vertical;strokeWidth=4;endArrow=block;endFill=1;fontStyle=1;strokeColor=#23445D;exitX=0;exitY=0.5;exitDx=0;exitDy=0;entryX=0;entryY=0.5;entryDx=0;entryDy=0;" edge="1" parent="1" source="MRi2y0TJPiElMwyEdzrn-60" target="MRi2y0TJPiElMwyEdzrn-68">
          <mxGeometry x="-31.5" y="555.5" width="100" height="100" as="geometry">
            <mxPoint x="872" y="945.5" as="sourcePoint" />
            <mxPoint x="682" y="995.5" as="targetPoint" />
            <Array as="points">
              <mxPoint x="760" y="870" />
            </Array>
          </mxGeometry>
        </mxCell>
        <mxCell id="MRi2y0TJPiElMwyEdzrn-71" value="" style="edgeStyle=elbowEdgeStyle;elbow=vertical;strokeWidth=4;endArrow=block;endFill=1;fontStyle=1;strokeColor=#23445D;exitX=0;exitY=0.5;exitDx=0;exitDy=0;entryX=0;entryY=0.5;entryDx=0;entryDy=0;" edge="1" parent="1" source="MRi2y0TJPiElMwyEdzrn-60" target="MRi2y0TJPiElMwyEdzrn-66">
          <mxGeometry x="-21.5" y="565.5" width="100" height="100" as="geometry">
            <mxPoint x="900" y="720" as="sourcePoint" />
            <mxPoint x="900" y="1030" as="targetPoint" />
            <Array as="points">
              <mxPoint x="840" y="760" />
            </Array>
          </mxGeometry>
        </mxCell>
        <mxCell id="MRi2y0TJPiElMwyEdzrn-72" value="" style="edgeStyle=elbowEdgeStyle;elbow=vertical;strokeWidth=4;endArrow=block;endFill=1;fontStyle=1;strokeColor=#23445D;exitX=0;exitY=0.5;exitDx=0;exitDy=0;entryX=0;entryY=0.5;entryDx=0;entryDy=0;" edge="1" parent="1" source="MRi2y0TJPiElMwyEdzrn-60" target="MRi2y0TJPiElMwyEdzrn-67">
          <mxGeometry x="-101.5" y="665.5" width="100" height="100" as="geometry">
            <mxPoint x="810" y="810" as="sourcePoint" />
            <mxPoint x="810" y="900" as="targetPoint" />
            <Array as="points">
              <mxPoint x="840" y="790" />
            </Array>
          </mxGeometry>
        </mxCell>
        <mxCell id="MRi2y0TJPiElMwyEdzrn-73" value="Ingredient &#xa;Component" style="rounded=1;fillColor=#10739E;strokeColor=none;shadow=1;gradientColor=none;fontStyle=1;fontColor=#FFFFFF;fontSize=14;" vertex="1" parent="1">
          <mxGeometry x="1170" y="770" width="130" height="60" as="geometry" />
        </mxCell>
        <mxCell id="MRi2y0TJPiElMwyEdzrn-74" value="Ingredient &#xa;Component" style="rounded=1;fillColor=#10739E;strokeColor=none;shadow=1;gradientColor=none;fontStyle=1;fontColor=#FFFFFF;fontSize=14;" vertex="1" parent="1">
          <mxGeometry x="1170" y="850" width="130" height="60" as="geometry" />
        </mxCell>
        <mxCell id="MRi2y0TJPiElMwyEdzrn-75" value="" style="edgeStyle=elbowEdgeStyle;elbow=vertical;strokeWidth=4;endArrow=block;endFill=1;fontStyle=1;strokeColor=#23445D;exitX=0;exitY=0.5;exitDx=0;exitDy=0;entryX=0;entryY=0.5;entryDx=0;entryDy=0;" edge="1" parent="1" source="MRi2y0TJPiElMwyEdzrn-61" target="MRi2y0TJPiElMwyEdzrn-73">
          <mxGeometry x="-91.5" y="675.5" width="100" height="100" as="geometry">
            <mxPoint x="900" y="720" as="sourcePoint" />
            <mxPoint x="900" y="880" as="targetPoint" />
            <Array as="points">
              <mxPoint x="1110" y="750" />
            </Array>
          </mxGeometry>
        </mxCell>
        <mxCell id="MRi2y0TJPiElMwyEdzrn-76" value="" style="edgeStyle=elbowEdgeStyle;elbow=vertical;strokeWidth=4;endArrow=block;endFill=1;fontStyle=1;strokeColor=#23445D;entryX=0;entryY=0.5;entryDx=0;entryDy=0;exitX=0;exitY=0.5;exitDx=0;exitDy=0;" edge="1" parent="1" source="MRi2y0TJPiElMwyEdzrn-61" target="MRi2y0TJPiElMwyEdzrn-74">
          <mxGeometry x="-81.5" y="685.5" width="100" height="100" as="geometry">
            <mxPoint x="1140" y="710" as="sourcePoint" />
            <mxPoint x="1180" y="810" as="targetPoint" />
            <Array as="points">
              <mxPoint x="1110" y="800" />
            </Array>
          </mxGeometry>
        </mxCell>
        <mxCell id="MRi2y0TJPiElMwyEdzrn-77" value="{props.children}" style="rounded=1;fillColor=#10739E;strokeColor=none;shadow=1;gradientColor=none;fontStyle=1;fontColor=#FFFFFF;fontSize=14;" vertex="1" parent="1">
          <mxGeometry x="1330" y="780" width="200" height="60" as="geometry" />
        </mxCell>
        <mxCell id="MRi2y0TJPiElMwyEdzrn-78" value="" style="edgeStyle=elbowEdgeStyle;elbow=vertical;strokeWidth=4;endArrow=block;endFill=1;fontStyle=1;strokeColor=#23445D;exitX=0.5;exitY=1;exitDx=0;exitDy=0;entryX=0.5;entryY=0;entryDx=0;entryDy=0;" edge="1" parent="1" source="MRi2y0TJPiElMwyEdzrn-62" target="MRi2y0TJPiElMwyEdzrn-77">
          <mxGeometry x="312" y="520" width="100" height="100" as="geometry">
            <mxPoint x="1430" y="840" as="sourcePoint" />
            <mxPoint x="1430" y="780" as="targetPoint" />
          </mxGeometry>
        </mxCell>
      </root>
    </mxGraphModel>
  </diagram>
</mxfile>
